<svg width="9" height="10" viewBox="0 0 9 10" fill="none" xmlns="http://www.w3.org/2000/svg">
<g id="mail" clip-path="url(#clip0_3_30)">
<path id="shape" d="M1.75608 2.59022C1.81869 2.52762 1.90519 2.48889 2.00072 2.48889H7.53628C7.63182 2.48889 7.71831 2.52762 7.78092 2.59022M1.75608 2.59022C1.69348 2.65283 1.65475 2.73933 1.65475 2.83486V6.98653C1.65475 7.17761 1.80965 7.3325 2.00072 7.3325H7.53628C7.72735 7.3325 7.88225 7.17761 7.88225 6.98653V2.83486C7.88225 2.73933 7.84353 2.65283 7.78092 2.59022M1.75608 2.59022L4.27922 5.11335C4.54944 5.38357 4.98756 5.38357 5.25778 5.11335L7.78092 2.59022" stroke="#7E74F1" stroke-width="0.518958" stroke-linecap="round" stroke-linejoin="round"/>
</g>
<defs>
<clipPath id="clip0_3_30">
<rect width="8.30334" height="8.30334" fill="white" transform="translate(0.616814 0.758789)"/>
</clipPath>
</defs>
</svg>
