<svg width="9" height="10" viewBox="0 0 9 10" fill="none" xmlns="http://www.w3.org/2000/svg">
<g id="phone call" clip-path="url(#clip0_3_36)">
<path id="shape" d="M5.63341 3.02713C5.88845 3.07688 6.14162 3.18936 6.32535 3.3731C6.50909 3.55684 6.62157 3.81001 6.67133 4.06504M5.8064 1.81622C6.33626 1.87509 6.81307 2.13143 7.19029 2.50817C7.5675 2.88491 7.8227 3.36226 7.88223 3.89206M7.88204 6.47878V7.41628C7.8835 7.77466 7.56126 8.07392 7.19944 8.04128C4.07656 8.04372 1.65475 5.59943 1.6572 2.49751C1.62461 2.13761 1.92239 1.81659 2.28031 1.81625H3.21967C3.37163 1.81476 3.51895 1.86847 3.63417 1.96736C3.96174 2.24851 4.17244 3.2028 4.09137 3.58216C4.02808 3.87834 3.72951 4.08556 3.52653 4.28814C3.97227 5.0705 4.62134 5.71829 5.40525 6.16315C5.60824 5.96057 5.81586 5.66259 6.11263 5.59943C6.49333 5.51839 7.45376 5.72939 7.73379 6.05924C7.83309 6.17621 7.88585 6.32552 7.88204 6.47878Z" stroke="#7E74F1" stroke-width="0.518958" stroke-linecap="round" stroke-linejoin="round"/>
</g>
<defs>
<clipPath id="clip0_3_36">
<rect width="8.30334" height="8.30334" fill="white" transform="translate(0.616814 0.778259)"/>
</clipPath>
</defs>
</svg>
